G04 #@! TF.FileFunction,Copper,L1,Top,Signal*
%FSLAX46Y46*%
G04 Gerber Fmt 4.6, Leading zero omitted, Abs format (unit mm)*
G04 Created by KiCad (PCBNEW 4.0.7) date Tuesday, 14 '14e' August '14e' 2018, 21:15:28*
%MOMM*%
%LPD*%
G01*
G04 APERTURE LIST*
%ADD10C,0.100000*%
%ADD11C,0.300000*%
%ADD12C,1.524000*%
%ADD13R,2.400000X2.400000*%
%ADD14C,2.400000*%
%ADD15R,2.000000X2.000000*%
%ADD16O,2.000000X2.000000*%
%ADD17O,1.727200X2.032000*%
%ADD18C,2.500000*%
%ADD19C,3.000000*%
%ADD20O,2.400000X2.400000*%
%ADD21O,2.540000X2.032000*%
%ADD22C,1.200000*%
%ADD23C,0.050000*%
G04 APERTURE END LIST*
D10*
D11*
X135332856Y-125773571D02*
X135332856Y-124273571D01*
X134832856Y-125345000D01*
X134332856Y-124273571D01*
X134332856Y-125773571D01*
X132975713Y-125773571D02*
X132975713Y-124987857D01*
X133047142Y-124845000D01*
X133189999Y-124773571D01*
X133475713Y-124773571D01*
X133618570Y-124845000D01*
X132975713Y-125702143D02*
X133118570Y-125773571D01*
X133475713Y-125773571D01*
X133618570Y-125702143D01*
X133689999Y-125559286D01*
X133689999Y-125416429D01*
X133618570Y-125273571D01*
X133475713Y-125202143D01*
X133118570Y-125202143D01*
X132975713Y-125130714D01*
X132261427Y-125773571D02*
X132261427Y-124773571D01*
X132261427Y-125059286D02*
X132189999Y-124916429D01*
X132118570Y-124845000D01*
X131975713Y-124773571D01*
X131832856Y-124773571D01*
X131547142Y-124773571D02*
X130975713Y-124773571D01*
X131332856Y-124273571D02*
X131332856Y-125559286D01*
X131261428Y-125702143D01*
X131118570Y-125773571D01*
X130975713Y-125773571D01*
X130475713Y-125773571D02*
X130475713Y-124773571D01*
X130475713Y-124273571D02*
X130547142Y-124345000D01*
X130475713Y-124416429D01*
X130404285Y-124345000D01*
X130475713Y-124273571D01*
X130475713Y-124416429D01*
X129761427Y-124773571D02*
X129761427Y-125773571D01*
X129761427Y-124916429D02*
X129689999Y-124845000D01*
X129547141Y-124773571D01*
X129332856Y-124773571D01*
X129189999Y-124845000D01*
X129118570Y-124987857D01*
X129118570Y-125773571D01*
X127261427Y-125773571D02*
X127261427Y-124273571D01*
X126904284Y-124273571D01*
X126689999Y-124345000D01*
X126547141Y-124487857D01*
X126475713Y-124630714D01*
X126404284Y-124916429D01*
X126404284Y-125130714D01*
X126475713Y-125416429D01*
X126547141Y-125559286D01*
X126689999Y-125702143D01*
X126904284Y-125773571D01*
X127261427Y-125773571D01*
X125118570Y-125773571D02*
X125118570Y-124987857D01*
X125189999Y-124845000D01*
X125332856Y-124773571D01*
X125618570Y-124773571D01*
X125761427Y-124845000D01*
X125118570Y-125702143D02*
X125261427Y-125773571D01*
X125618570Y-125773571D01*
X125761427Y-125702143D01*
X125832856Y-125559286D01*
X125832856Y-125416429D01*
X125761427Y-125273571D01*
X125618570Y-125202143D01*
X125261427Y-125202143D01*
X125118570Y-125130714D01*
X124404284Y-125773571D02*
X124404284Y-124773571D01*
X124404284Y-125059286D02*
X124332856Y-124916429D01*
X124261427Y-124845000D01*
X124118570Y-124773571D01*
X123975713Y-124773571D01*
X122832856Y-125773571D02*
X122832856Y-124273571D01*
X122832856Y-125702143D02*
X122975713Y-125773571D01*
X123261427Y-125773571D01*
X123404285Y-125702143D01*
X123475713Y-125630714D01*
X123547142Y-125487857D01*
X123547142Y-125059286D01*
X123475713Y-124916429D01*
X123404285Y-124845000D01*
X123261427Y-124773571D01*
X122975713Y-124773571D01*
X122832856Y-124845000D01*
X122118570Y-125773571D02*
X122118570Y-124773571D01*
X122118570Y-124273571D02*
X122189999Y-124345000D01*
X122118570Y-124416429D01*
X122047142Y-124345000D01*
X122118570Y-124273571D01*
X122118570Y-124416429D01*
X121475713Y-125702143D02*
X121332856Y-125773571D01*
X121047141Y-125773571D01*
X120904284Y-125702143D01*
X120832856Y-125559286D01*
X120832856Y-125487857D01*
X120904284Y-125345000D01*
X121047141Y-125273571D01*
X121261427Y-125273571D01*
X121404284Y-125202143D01*
X121475713Y-125059286D01*
X121475713Y-124987857D01*
X121404284Y-124845000D01*
X121261427Y-124773571D01*
X121047141Y-124773571D01*
X120904284Y-124845000D01*
X119047141Y-125202143D02*
X117904284Y-125202143D01*
X116118570Y-124416429D02*
X116047141Y-124345000D01*
X115904284Y-124273571D01*
X115547141Y-124273571D01*
X115404284Y-124345000D01*
X115332855Y-124416429D01*
X115261427Y-124559286D01*
X115261427Y-124702143D01*
X115332855Y-124916429D01*
X116189998Y-125773571D01*
X115261427Y-125773571D01*
X114332856Y-124273571D02*
X114189999Y-124273571D01*
X114047142Y-124345000D01*
X113975713Y-124416429D01*
X113904284Y-124559286D01*
X113832856Y-124845000D01*
X113832856Y-125202143D01*
X113904284Y-125487857D01*
X113975713Y-125630714D01*
X114047142Y-125702143D01*
X114189999Y-125773571D01*
X114332856Y-125773571D01*
X114475713Y-125702143D01*
X114547142Y-125630714D01*
X114618570Y-125487857D01*
X114689999Y-125202143D01*
X114689999Y-124845000D01*
X114618570Y-124559286D01*
X114547142Y-124416429D01*
X114475713Y-124345000D01*
X114332856Y-124273571D01*
X112404285Y-125773571D02*
X113261428Y-125773571D01*
X112832856Y-125773571D02*
X112832856Y-124273571D01*
X112975713Y-124487857D01*
X113118571Y-124630714D01*
X113261428Y-124702143D01*
X111547142Y-124916429D02*
X111690000Y-124845000D01*
X111761428Y-124773571D01*
X111832857Y-124630714D01*
X111832857Y-124559286D01*
X111761428Y-124416429D01*
X111690000Y-124345000D01*
X111547142Y-124273571D01*
X111261428Y-124273571D01*
X111118571Y-124345000D01*
X111047142Y-124416429D01*
X110975714Y-124559286D01*
X110975714Y-124630714D01*
X111047142Y-124773571D01*
X111118571Y-124845000D01*
X111261428Y-124916429D01*
X111547142Y-124916429D01*
X111690000Y-124987857D01*
X111761428Y-125059286D01*
X111832857Y-125202143D01*
X111832857Y-125487857D01*
X111761428Y-125630714D01*
X111690000Y-125702143D01*
X111547142Y-125773571D01*
X111261428Y-125773571D01*
X111118571Y-125702143D01*
X111047142Y-125630714D01*
X110975714Y-125487857D01*
X110975714Y-125202143D01*
X111047142Y-125059286D01*
X111118571Y-124987857D01*
X111261428Y-124916429D01*
D12*
X140335000Y-94615000D03*
X137795000Y-97155000D03*
X137795000Y-92075000D03*
X121920000Y-93980000D03*
X119380000Y-96520000D03*
X119380000Y-91440000D03*
D13*
X114935000Y-53975000D03*
D14*
X118435000Y-53975000D03*
X121935000Y-53975000D03*
X125435000Y-53975000D03*
X128935000Y-53975000D03*
X132435000Y-53975000D03*
D15*
X109220000Y-86995000D03*
D16*
X119380000Y-86995000D03*
D15*
X127635000Y-86995000D03*
D16*
X137795000Y-86995000D03*
D13*
X96520000Y-113030000D03*
D14*
X96520000Y-116530000D03*
D17*
X109855000Y-135890000D03*
X112395000Y-135890000D03*
X114935000Y-135890000D03*
X117475000Y-135890000D03*
X120015000Y-135890000D03*
X122555000Y-135890000D03*
X125095000Y-135890000D03*
X127635000Y-135890000D03*
X130175000Y-135890000D03*
X132715000Y-135890000D03*
X135255000Y-135890000D03*
X137795000Y-135890000D03*
X140335000Y-135890000D03*
X142875000Y-135890000D03*
X145415000Y-135890000D03*
X109855000Y-113030000D03*
X140335000Y-113030000D03*
X142875000Y-113030000D03*
X137795000Y-113030000D03*
X122555000Y-113030000D03*
X120015000Y-113030000D03*
X125095000Y-113030000D03*
X145415000Y-113030000D03*
X130175000Y-113030000D03*
X127635000Y-113030000D03*
X132715000Y-113030000D03*
X135255000Y-113030000D03*
X114935000Y-113030000D03*
X117475000Y-113030000D03*
X112395000Y-113030000D03*
D18*
X120350000Y-79330000D03*
D19*
X120350000Y-67130000D03*
X108300000Y-67080000D03*
D18*
X108350000Y-79330000D03*
D19*
X114300000Y-81280000D03*
D18*
X138765000Y-79330000D03*
D19*
X138765000Y-67130000D03*
X126715000Y-67080000D03*
D18*
X126765000Y-79330000D03*
D19*
X132715000Y-81280000D03*
D14*
X113665000Y-93980000D03*
D20*
X113665000Y-106680000D03*
D14*
X130175000Y-94615000D03*
D20*
X130175000Y-107315000D03*
D21*
X95885000Y-125095000D03*
X95885000Y-127635000D03*
X95885000Y-122555000D03*
D22*
X121920000Y-93980000D02*
X113665000Y-93980000D01*
X119380000Y-91440000D02*
X119380000Y-86995000D01*
X119380000Y-86995000D02*
X120015000Y-86995000D01*
X120015000Y-86995000D02*
X120350000Y-86660000D01*
X120350000Y-86660000D02*
X120350000Y-79330000D01*
X144145000Y-130810000D02*
X145415000Y-130810000D01*
X145415000Y-130810000D02*
X145415000Y-129540000D01*
X95885000Y-127635000D02*
X95885000Y-128270000D01*
X95885000Y-128270000D02*
X98425000Y-130810000D01*
X98425000Y-130810000D02*
X144145000Y-130810000D01*
X144145000Y-130810000D02*
X144780000Y-130810000D01*
X154305000Y-116840000D02*
X154305000Y-117475000D01*
X154305000Y-117475000D02*
X153670000Y-117475000D01*
X125730000Y-90170000D02*
X125730000Y-83820000D01*
X127000000Y-83185000D02*
X126765000Y-83185000D01*
X127000000Y-83585000D02*
X127000000Y-83185000D01*
X126765000Y-83820000D02*
X127000000Y-83585000D01*
X125730000Y-83820000D02*
X126765000Y-83820000D01*
X145415000Y-135890000D02*
X145415000Y-129540000D01*
X145415000Y-129540000D02*
X145415000Y-125730000D01*
X145415000Y-125730000D02*
X153670000Y-117475000D01*
X127635000Y-88265000D02*
X127635000Y-86995000D01*
X125730000Y-90170000D02*
X127635000Y-88265000D01*
X125730000Y-100965000D02*
X125730000Y-90170000D01*
X154305000Y-116840000D02*
X154305000Y-109220000D01*
X154305000Y-109220000D02*
X149860000Y-104775000D01*
X149860000Y-104775000D02*
X138430000Y-104775000D01*
X138430000Y-104775000D02*
X134620000Y-100965000D01*
X134620000Y-100965000D02*
X125730000Y-100965000D01*
X153670000Y-117475000D02*
X154305000Y-116840000D01*
X108350000Y-79330000D02*
X109265000Y-79330000D01*
X109265000Y-79330000D02*
X112395000Y-76200000D01*
X126765000Y-75330000D02*
X126765000Y-79330000D01*
X124460000Y-73025000D02*
X126765000Y-75330000D01*
X120015000Y-73025000D02*
X124460000Y-73025000D01*
X116840000Y-76200000D02*
X120015000Y-73025000D01*
X112395000Y-76200000D02*
X116840000Y-76200000D01*
X109220000Y-86995000D02*
X108585000Y-86995000D01*
X108585000Y-86995000D02*
X108350000Y-86760000D01*
X108350000Y-86760000D02*
X108350000Y-79330000D01*
X127635000Y-86995000D02*
X127000000Y-86995000D01*
X127000000Y-86995000D02*
X126765000Y-86760000D01*
X126765000Y-86760000D02*
X126765000Y-83185000D01*
X126765000Y-83185000D02*
X126765000Y-79330000D01*
X114935000Y-113030000D02*
X114935000Y-110490000D01*
X118110000Y-107315000D02*
X130175000Y-107315000D01*
X114935000Y-110490000D02*
X118110000Y-107315000D01*
X140335000Y-94615000D02*
X130175000Y-94615000D01*
X95885000Y-125095000D02*
X93980000Y-125095000D01*
X94615000Y-113030000D02*
X96520000Y-113030000D01*
X93345000Y-114300000D02*
X94615000Y-113030000D01*
X93345000Y-124460000D02*
X93345000Y-114300000D01*
X93980000Y-125095000D02*
X93345000Y-124460000D01*
X95885000Y-125095000D02*
X100330000Y-125095000D01*
X100965000Y-124460000D02*
X100965000Y-119380000D01*
X100330000Y-125095000D02*
X100965000Y-124460000D01*
X125095000Y-113030000D02*
X125095000Y-118745000D01*
X100965000Y-99695000D02*
X102870000Y-97790000D01*
X100965000Y-119380000D02*
X100965000Y-99695000D01*
X101600000Y-120015000D02*
X100965000Y-119380000D01*
X123825000Y-120015000D02*
X101600000Y-120015000D01*
X125095000Y-118745000D02*
X123825000Y-120015000D01*
X119380000Y-96520000D02*
X119380000Y-98425000D01*
X139700000Y-99060000D02*
X137795000Y-97155000D01*
X141605000Y-99060000D02*
X139700000Y-99060000D01*
X145415000Y-95250000D02*
X141605000Y-99060000D01*
X145415000Y-53975000D02*
X145415000Y-95250000D01*
X139700000Y-48260000D02*
X145415000Y-53975000D01*
X109855000Y-48260000D02*
X139700000Y-48260000D01*
X102870000Y-55245000D02*
X109855000Y-48260000D01*
X102870000Y-98425000D02*
X102870000Y-97790000D01*
X102870000Y-97790000D02*
X102870000Y-55245000D01*
X104140000Y-99695000D02*
X102870000Y-98425000D01*
X118110000Y-99695000D02*
X104140000Y-99695000D01*
X119380000Y-98425000D02*
X118110000Y-99695000D01*
X137795000Y-92075000D02*
X137795000Y-86995000D01*
X137795000Y-86995000D02*
X139065000Y-85725000D01*
X139065000Y-85725000D02*
X139065000Y-79630000D01*
X139065000Y-79630000D02*
X138765000Y-79330000D01*
X108300000Y-67080000D02*
X108300000Y-60610000D01*
X108300000Y-60610000D02*
X114935000Y-53975000D01*
X114300000Y-81280000D02*
X114300000Y-86995000D01*
X118435000Y-59365000D02*
X118435000Y-53975000D01*
X114935000Y-62865000D02*
X118435000Y-59365000D01*
X114935000Y-71755000D02*
X114935000Y-62865000D01*
X114300000Y-72390000D02*
X114935000Y-71755000D01*
X108585000Y-72390000D02*
X114300000Y-72390000D01*
X105410000Y-75565000D02*
X108585000Y-72390000D01*
X105410000Y-89535000D02*
X105410000Y-75565000D01*
X107315000Y-91440000D02*
X105410000Y-89535000D01*
X109855000Y-91440000D02*
X107315000Y-91440000D01*
X114300000Y-86995000D02*
X109855000Y-91440000D01*
X120350000Y-67130000D02*
X120350000Y-65070000D01*
X121935000Y-63485000D02*
X121935000Y-53975000D01*
X120350000Y-65070000D02*
X121935000Y-63485000D01*
X126715000Y-67080000D02*
X126715000Y-64485000D01*
X125435000Y-63205000D02*
X125435000Y-53975000D01*
X126715000Y-64485000D02*
X125435000Y-63205000D01*
X132715000Y-81280000D02*
X132715000Y-64135000D01*
X128935000Y-60355000D02*
X128935000Y-53975000D01*
X132715000Y-64135000D02*
X128935000Y-60355000D01*
X138765000Y-67130000D02*
X138765000Y-60305000D01*
X138765000Y-60305000D02*
X132435000Y-53975000D01*
X112395000Y-113030000D02*
X112395000Y-107950000D01*
X112395000Y-107950000D02*
X113665000Y-106680000D01*
X95885000Y-122555000D02*
X95885000Y-117165000D01*
X95885000Y-117165000D02*
X96520000Y-116530000D01*
D23*
G36*
X156185000Y-141580000D02*
X154940235Y-141580000D01*
X90195000Y-140310486D01*
X90195000Y-135580638D01*
X103379615Y-135580638D01*
X103717637Y-136398715D01*
X104342993Y-137025163D01*
X105160479Y-137364613D01*
X106045638Y-137365385D01*
X106863715Y-137027363D01*
X107490163Y-136402007D01*
X107829613Y-135584521D01*
X107830385Y-134699362D01*
X107492363Y-133881285D01*
X106867007Y-133254837D01*
X106049521Y-132915387D01*
X105164362Y-132914615D01*
X104346285Y-133252637D01*
X103719837Y-133877993D01*
X103380387Y-134695479D01*
X103379615Y-135580638D01*
X90195000Y-135580638D01*
X90195000Y-114300000D01*
X92120000Y-114300000D01*
X92120000Y-124460000D01*
X92213248Y-124928787D01*
X92478794Y-125326206D01*
X93113794Y-125961206D01*
X93511213Y-126226752D01*
X93980000Y-126320001D01*
X93980005Y-126320000D01*
X94530250Y-126320000D01*
X94597598Y-126365000D01*
X94433513Y-126474638D01*
X94077789Y-127007016D01*
X93952875Y-127635000D01*
X94077789Y-128262984D01*
X94433513Y-128795362D01*
X94965891Y-129151086D01*
X95050505Y-129167917D01*
X97558792Y-131676203D01*
X97558794Y-131676206D01*
X97956213Y-131941752D01*
X98425000Y-132035000D01*
X144190000Y-132035000D01*
X144190000Y-134910868D01*
X144145000Y-134978215D01*
X143927599Y-134652852D01*
X143444663Y-134330164D01*
X142875000Y-134216851D01*
X142305337Y-134330164D01*
X141822401Y-134652852D01*
X141605000Y-134978215D01*
X141387599Y-134652852D01*
X140904663Y-134330164D01*
X140335000Y-134216851D01*
X139765337Y-134330164D01*
X139282401Y-134652852D01*
X139065000Y-134978215D01*
X138847599Y-134652852D01*
X138364663Y-134330164D01*
X137795000Y-134216851D01*
X137225337Y-134330164D01*
X136742401Y-134652852D01*
X136525000Y-134978215D01*
X136307599Y-134652852D01*
X135824663Y-134330164D01*
X135255000Y-134216851D01*
X134685337Y-134330164D01*
X134202401Y-134652852D01*
X133985000Y-134978215D01*
X133767599Y-134652852D01*
X133284663Y-134330164D01*
X132715000Y-134216851D01*
X132145337Y-134330164D01*
X131662401Y-134652852D01*
X131445000Y-134978215D01*
X131227599Y-134652852D01*
X130744663Y-134330164D01*
X130175000Y-134216851D01*
X129605337Y-134330164D01*
X129122401Y-134652852D01*
X128905000Y-134978215D01*
X128687599Y-134652852D01*
X128204663Y-134330164D01*
X127635000Y-134216851D01*
X127065337Y-134330164D01*
X126582401Y-134652852D01*
X126365000Y-134978215D01*
X126147599Y-134652852D01*
X125664663Y-134330164D01*
X125095000Y-134216851D01*
X124525337Y-134330164D01*
X124042401Y-134652852D01*
X123825000Y-134978215D01*
X123607599Y-134652852D01*
X123124663Y-134330164D01*
X122555000Y-134216851D01*
X121985337Y-134330164D01*
X121502401Y-134652852D01*
X121285000Y-134978215D01*
X121067599Y-134652852D01*
X120584663Y-134330164D01*
X120015000Y-134216851D01*
X119445337Y-134330164D01*
X118962401Y-134652852D01*
X118745000Y-134978215D01*
X118527599Y-134652852D01*
X118044663Y-134330164D01*
X117475000Y-134216851D01*
X116905337Y-134330164D01*
X116422401Y-134652852D01*
X116205000Y-134978215D01*
X115987599Y-134652852D01*
X115504663Y-134330164D01*
X114935000Y-134216851D01*
X114365337Y-134330164D01*
X113882401Y-134652852D01*
X113665000Y-134978215D01*
X113447599Y-134652852D01*
X112964663Y-134330164D01*
X112395000Y-134216851D01*
X111825337Y-134330164D01*
X111342401Y-134652852D01*
X111125000Y-134978215D01*
X110907599Y-134652852D01*
X110424663Y-134330164D01*
X109855000Y-134216851D01*
X109285337Y-134330164D01*
X108802401Y-134652852D01*
X108479713Y-135135788D01*
X108366400Y-135705451D01*
X108366400Y-136074549D01*
X108479713Y-136644212D01*
X108802401Y-137127148D01*
X109285337Y-137449836D01*
X109855000Y-137563149D01*
X110424663Y-137449836D01*
X110907599Y-137127148D01*
X111125000Y-136801785D01*
X111342401Y-137127148D01*
X111825337Y-137449836D01*
X112395000Y-137563149D01*
X112964663Y-137449836D01*
X113447599Y-137127148D01*
X113665000Y-136801785D01*
X113882401Y-137127148D01*
X114365337Y-137449836D01*
X114935000Y-137563149D01*
X115504663Y-137449836D01*
X115987599Y-137127148D01*
X116205000Y-136801785D01*
X116422401Y-137127148D01*
X116905337Y-137449836D01*
X117475000Y-137563149D01*
X118044663Y-137449836D01*
X118527599Y-137127148D01*
X118745000Y-136801785D01*
X118962401Y-137127148D01*
X119445337Y-137449836D01*
X120015000Y-137563149D01*
X120584663Y-137449836D01*
X121067599Y-137127148D01*
X121285000Y-136801785D01*
X121502401Y-137127148D01*
X121985337Y-137449836D01*
X122555000Y-137563149D01*
X123124663Y-137449836D01*
X123607599Y-137127148D01*
X123825000Y-136801785D01*
X124042401Y-137127148D01*
X124525337Y-137449836D01*
X125095000Y-137563149D01*
X125664663Y-137449836D01*
X126147599Y-137127148D01*
X126365000Y-136801785D01*
X126582401Y-137127148D01*
X127065337Y-137449836D01*
X127635000Y-137563149D01*
X128204663Y-137449836D01*
X128687599Y-137127148D01*
X128905000Y-136801785D01*
X129122401Y-137127148D01*
X129605337Y-137449836D01*
X130175000Y-137563149D01*
X130744663Y-137449836D01*
X131227599Y-137127148D01*
X131445000Y-136801785D01*
X131662401Y-137127148D01*
X132145337Y-137449836D01*
X132715000Y-137563149D01*
X133284663Y-137449836D01*
X133767599Y-137127148D01*
X133985000Y-136801785D01*
X134202401Y-137127148D01*
X134685337Y-137449836D01*
X135255000Y-137563149D01*
X135824663Y-137449836D01*
X136307599Y-137127148D01*
X136525000Y-136801785D01*
X136742401Y-137127148D01*
X137225337Y-137449836D01*
X137795000Y-137563149D01*
X138364663Y-137449836D01*
X138847599Y-137127148D01*
X139065000Y-136801785D01*
X139282401Y-137127148D01*
X139765337Y-137449836D01*
X140335000Y-137563149D01*
X140904663Y-137449836D01*
X141387599Y-137127148D01*
X141605000Y-136801785D01*
X141822401Y-137127148D01*
X142305337Y-137449836D01*
X142875000Y-137563149D01*
X143444663Y-137449836D01*
X143927599Y-137127148D01*
X144145000Y-136801785D01*
X144362401Y-137127148D01*
X144845337Y-137449836D01*
X145415000Y-137563149D01*
X145984663Y-137449836D01*
X146467599Y-137127148D01*
X146790287Y-136644212D01*
X146903600Y-136074549D01*
X146903600Y-135705451D01*
X146868828Y-135530638D01*
X147009615Y-135530638D01*
X147347637Y-136348715D01*
X147972993Y-136975163D01*
X148790479Y-137314613D01*
X149675638Y-137315385D01*
X150493715Y-136977363D01*
X151120163Y-136352007D01*
X151459613Y-135534521D01*
X151460385Y-134649362D01*
X151122363Y-133831285D01*
X150497007Y-133204837D01*
X149679521Y-132865387D01*
X148794362Y-132864615D01*
X147976285Y-133202637D01*
X147349837Y-133827993D01*
X147010387Y-134645479D01*
X147009615Y-135530638D01*
X146868828Y-135530638D01*
X146790287Y-135135788D01*
X146640000Y-134910868D01*
X146640000Y-126237412D01*
X154177412Y-118700000D01*
X154305000Y-118700000D01*
X154773787Y-118606752D01*
X155171206Y-118341206D01*
X155436752Y-117943787D01*
X155530000Y-117475000D01*
X155530000Y-116840005D01*
X155530001Y-116840000D01*
X155530000Y-116839995D01*
X155530000Y-109220000D01*
X155436752Y-108751213D01*
X155171206Y-108353794D01*
X150726206Y-103908794D01*
X150328787Y-103643248D01*
X149860000Y-103550000D01*
X138937412Y-103550000D01*
X135486206Y-100098794D01*
X135088787Y-99833248D01*
X134620000Y-99740000D01*
X126955000Y-99740000D01*
X126955000Y-90677412D01*
X128501206Y-89131206D01*
X128766752Y-88733787D01*
X128792859Y-88602541D01*
X128866611Y-88588663D01*
X129079332Y-88451781D01*
X129222038Y-88242924D01*
X129272244Y-87995000D01*
X129272244Y-85995000D01*
X129228663Y-85763389D01*
X129091781Y-85550668D01*
X128882924Y-85407962D01*
X128635000Y-85357756D01*
X127990000Y-85357756D01*
X127990000Y-84265935D01*
X128131752Y-84053787D01*
X128225000Y-83585000D01*
X128225000Y-83185000D01*
X128131752Y-82716213D01*
X127990000Y-82504065D01*
X127990000Y-80756475D01*
X128353620Y-80393489D01*
X128639673Y-79704597D01*
X128640324Y-78958676D01*
X128355474Y-78269286D01*
X127990000Y-77903173D01*
X127990000Y-75330000D01*
X127896752Y-74861213D01*
X127631206Y-74463794D01*
X125326206Y-72158794D01*
X124928787Y-71893248D01*
X124460000Y-71800000D01*
X120015000Y-71800000D01*
X119546213Y-71893248D01*
X119148794Y-72158794D01*
X116332588Y-74975000D01*
X112395000Y-74975000D01*
X111926213Y-75068248D01*
X111528794Y-75333794D01*
X111528792Y-75333797D01*
X109206965Y-77655624D01*
X108724597Y-77455327D01*
X107978676Y-77454676D01*
X107289286Y-77739526D01*
X106761380Y-78266511D01*
X106635000Y-78570868D01*
X106635000Y-76072412D01*
X109092412Y-73615000D01*
X114300000Y-73615000D01*
X114768787Y-73521752D01*
X115166206Y-73256206D01*
X115801206Y-72621206D01*
X116066752Y-72223787D01*
X116160001Y-71755000D01*
X116160000Y-71754995D01*
X116160000Y-63372412D01*
X119301203Y-60231208D01*
X119301206Y-60231206D01*
X119566752Y-59833787D01*
X119660000Y-59365000D01*
X119660000Y-55330827D01*
X119981258Y-55010129D01*
X120185158Y-54519084D01*
X120386938Y-55007429D01*
X120710000Y-55331055D01*
X120710000Y-62977589D01*
X119483794Y-64203794D01*
X119218248Y-64601213D01*
X119125000Y-65070000D01*
X119125000Y-65350279D01*
X118549563Y-65924713D01*
X118225370Y-66705457D01*
X118224632Y-67550834D01*
X118547462Y-68332143D01*
X119144713Y-68930437D01*
X119925457Y-69254630D01*
X120770834Y-69255368D01*
X121552143Y-68932538D01*
X122150437Y-68335287D01*
X122474630Y-67554543D01*
X122475368Y-66709166D01*
X122152538Y-65927857D01*
X121688951Y-65463461D01*
X122801203Y-64351208D01*
X122801206Y-64351206D01*
X123066752Y-63953787D01*
X123160000Y-63485000D01*
X123160000Y-55330827D01*
X123481258Y-55010129D01*
X123685158Y-54519084D01*
X123886938Y-55007429D01*
X124210000Y-55331055D01*
X124210000Y-63205000D01*
X124303248Y-63673787D01*
X124568794Y-64071206D01*
X125490000Y-64992412D01*
X125490000Y-65300279D01*
X124914563Y-65874713D01*
X124590370Y-66655457D01*
X124589632Y-67500834D01*
X124912462Y-68282143D01*
X125509713Y-68880437D01*
X126290457Y-69204630D01*
X127135834Y-69205368D01*
X127917143Y-68882538D01*
X128515437Y-68285287D01*
X128839630Y-67504543D01*
X128840368Y-66659166D01*
X128517538Y-65877857D01*
X127940000Y-65299310D01*
X127940000Y-64485000D01*
X127846752Y-64016213D01*
X127581206Y-63618794D01*
X126660000Y-62697588D01*
X126660000Y-55330827D01*
X126981258Y-55010129D01*
X127185158Y-54519084D01*
X127386938Y-55007429D01*
X127710000Y-55331055D01*
X127710000Y-60355000D01*
X127803248Y-60823787D01*
X128068794Y-61221206D01*
X131490000Y-64642412D01*
X131490000Y-79500279D01*
X130914563Y-80074713D01*
X130590370Y-80855457D01*
X130589632Y-81700834D01*
X130912462Y-82482143D01*
X131509713Y-83080437D01*
X132290457Y-83404630D01*
X133135834Y-83405368D01*
X133917143Y-83082538D01*
X134515437Y-82485287D01*
X134839630Y-81704543D01*
X134840368Y-80859166D01*
X134517538Y-80077857D01*
X133940000Y-79499310D01*
X133940000Y-64135000D01*
X133846752Y-63666213D01*
X133581206Y-63268794D01*
X130160000Y-59847588D01*
X130160000Y-55330827D01*
X130481258Y-55010129D01*
X130685158Y-54519084D01*
X130886938Y-55007429D01*
X131399871Y-55521258D01*
X132070392Y-55799683D01*
X132527670Y-55800082D01*
X137540000Y-60812412D01*
X137540000Y-65350279D01*
X136964563Y-65924713D01*
X136640370Y-66705457D01*
X136639632Y-67550834D01*
X136962462Y-68332143D01*
X137559713Y-68930437D01*
X138340457Y-69254630D01*
X139185834Y-69255368D01*
X139967143Y-68932538D01*
X140565437Y-68335287D01*
X140889630Y-67554543D01*
X140890368Y-66709166D01*
X140567538Y-65927857D01*
X139990000Y-65349310D01*
X139990000Y-60305000D01*
X139896752Y-59836213D01*
X139631206Y-59438794D01*
X134259920Y-54067508D01*
X134260316Y-53613578D01*
X133983062Y-52942571D01*
X133470129Y-52428742D01*
X132799608Y-52150317D01*
X132073578Y-52149684D01*
X131402571Y-52426938D01*
X130888742Y-52939871D01*
X130684842Y-53430916D01*
X130483062Y-52942571D01*
X129970129Y-52428742D01*
X129299608Y-52150317D01*
X128573578Y-52149684D01*
X127902571Y-52426938D01*
X127388742Y-52939871D01*
X127184842Y-53430916D01*
X126983062Y-52942571D01*
X126470129Y-52428742D01*
X125799608Y-52150317D01*
X125073578Y-52149684D01*
X124402571Y-52426938D01*
X123888742Y-52939871D01*
X123684842Y-53430916D01*
X123483062Y-52942571D01*
X122970129Y-52428742D01*
X122299608Y-52150317D01*
X121573578Y-52149684D01*
X120902571Y-52426938D01*
X120388742Y-52939871D01*
X120184842Y-53430916D01*
X119983062Y-52942571D01*
X119470129Y-52428742D01*
X118799608Y-52150317D01*
X118073578Y-52149684D01*
X117402571Y-52426938D01*
X116888742Y-52939871D01*
X116772244Y-53220429D01*
X116772244Y-52775000D01*
X116728663Y-52543389D01*
X116591781Y-52330668D01*
X116382924Y-52187962D01*
X116135000Y-52137756D01*
X113735000Y-52137756D01*
X113503389Y-52181337D01*
X113290668Y-52318219D01*
X113147962Y-52527076D01*
X113097756Y-52775000D01*
X113097756Y-54079832D01*
X107433794Y-59743794D01*
X107168248Y-60141213D01*
X107075000Y-60610000D01*
X107075000Y-65300279D01*
X106499563Y-65874713D01*
X106175370Y-66655457D01*
X106174632Y-67500834D01*
X106497462Y-68282143D01*
X107094713Y-68880437D01*
X107875457Y-69204630D01*
X108720834Y-69205368D01*
X109502143Y-68882538D01*
X110100437Y-68285287D01*
X110424630Y-67504543D01*
X110425368Y-66659166D01*
X110102538Y-65877857D01*
X109525000Y-65299310D01*
X109525000Y-61117412D01*
X114830168Y-55812244D01*
X116135000Y-55812244D01*
X116366611Y-55768663D01*
X116579332Y-55631781D01*
X116722038Y-55422924D01*
X116772244Y-55175000D01*
X116772244Y-54729848D01*
X116886938Y-55007429D01*
X117210000Y-55331055D01*
X117210000Y-58857589D01*
X114068794Y-61998794D01*
X113803248Y-62396213D01*
X113710000Y-62865000D01*
X113710000Y-71165000D01*
X108585000Y-71165000D01*
X108116213Y-71258248D01*
X107718794Y-71523794D01*
X104543794Y-74698794D01*
X104278248Y-75096213D01*
X104185000Y-75565000D01*
X104185000Y-89535000D01*
X104278248Y-90003787D01*
X104543794Y-90401206D01*
X106448794Y-92306206D01*
X106846213Y-92571752D01*
X107315000Y-92665000D01*
X109855000Y-92665000D01*
X110323787Y-92571752D01*
X110721206Y-92306206D01*
X115166206Y-87861206D01*
X115431752Y-87463787D01*
X115525000Y-86995000D01*
X115525000Y-83059721D01*
X116100437Y-82485287D01*
X116424630Y-81704543D01*
X116425368Y-80859166D01*
X116102538Y-80077857D01*
X115505287Y-79479563D01*
X114724543Y-79155370D01*
X113879166Y-79154632D01*
X113097857Y-79477462D01*
X112499563Y-80074713D01*
X112175370Y-80855457D01*
X112174632Y-81700834D01*
X112497462Y-82482143D01*
X113075000Y-83060690D01*
X113075000Y-86487588D01*
X109347588Y-90215000D01*
X107822412Y-90215000D01*
X106635000Y-89027588D01*
X106635000Y-80089338D01*
X106759526Y-80390714D01*
X107125000Y-80756827D01*
X107125000Y-86760000D01*
X107218248Y-87228787D01*
X107483794Y-87626206D01*
X107582756Y-87725168D01*
X107582756Y-87995000D01*
X107626337Y-88226611D01*
X107763219Y-88439332D01*
X107972076Y-88582038D01*
X108220000Y-88632244D01*
X110220000Y-88632244D01*
X110451611Y-88588663D01*
X110664332Y-88451781D01*
X110807038Y-88242924D01*
X110857244Y-87995000D01*
X110857244Y-85995000D01*
X110813663Y-85763389D01*
X110676781Y-85550668D01*
X110467924Y-85407962D01*
X110220000Y-85357756D01*
X109575000Y-85357756D01*
X109575000Y-80756475D01*
X109938620Y-80393489D01*
X109978044Y-80298545D01*
X110131206Y-80196206D01*
X112902411Y-77425000D01*
X116840000Y-77425000D01*
X117308787Y-77331752D01*
X117706206Y-77066206D01*
X120522412Y-74250000D01*
X123952588Y-74250000D01*
X125540000Y-75837412D01*
X125540000Y-77903525D01*
X125176380Y-78266511D01*
X124890327Y-78955403D01*
X124889676Y-79701324D01*
X125174526Y-80390714D01*
X125540000Y-80756827D01*
X125540000Y-82632794D01*
X125261213Y-82688248D01*
X124863794Y-82953794D01*
X124598248Y-83351213D01*
X124505000Y-83820000D01*
X124505000Y-100965000D01*
X124598248Y-101433787D01*
X124863794Y-101831206D01*
X125261213Y-102096752D01*
X125730000Y-102190000D01*
X134112588Y-102190000D01*
X137563794Y-105641206D01*
X137961213Y-105906752D01*
X138430000Y-106000001D01*
X138430005Y-106000000D01*
X149352588Y-106000000D01*
X153080000Y-109727412D01*
X153080000Y-116332588D01*
X144548794Y-124863794D01*
X144283248Y-125261213D01*
X144190000Y-125730000D01*
X144190000Y-129585000D01*
X98932411Y-129585000D01*
X97659440Y-128312029D01*
X97692211Y-128262984D01*
X97817125Y-127635000D01*
X97692211Y-127007016D01*
X97336487Y-126474638D01*
X97172402Y-126365000D01*
X97239750Y-126320000D01*
X100330000Y-126320000D01*
X100798787Y-126226752D01*
X101196206Y-125961206D01*
X101831206Y-125326206D01*
X102096752Y-124928787D01*
X102190001Y-124460000D01*
X102190000Y-124459995D01*
X102190000Y-123770000D01*
X110565001Y-123770000D01*
X110565001Y-126570000D01*
X135815000Y-126570000D01*
X135815000Y-123770000D01*
X110565001Y-123770000D01*
X102190000Y-123770000D01*
X102190000Y-121240000D01*
X123825000Y-121240000D01*
X124293787Y-121146752D01*
X124691206Y-120881206D01*
X125961206Y-119611206D01*
X126226752Y-119213787D01*
X126320000Y-118745000D01*
X126320000Y-114009132D01*
X126365000Y-113941785D01*
X126582401Y-114267148D01*
X127065337Y-114589836D01*
X127635000Y-114703149D01*
X128204663Y-114589836D01*
X128687599Y-114267148D01*
X128905000Y-113941785D01*
X129122401Y-114267148D01*
X129605337Y-114589836D01*
X130175000Y-114703149D01*
X130744663Y-114589836D01*
X131227599Y-114267148D01*
X131445000Y-113941785D01*
X131662401Y-114267148D01*
X132145337Y-114589836D01*
X132715000Y-114703149D01*
X133284663Y-114589836D01*
X133767599Y-114267148D01*
X133985000Y-113941785D01*
X134202401Y-114267148D01*
X134685337Y-114589836D01*
X135255000Y-114703149D01*
X135824663Y-114589836D01*
X136307599Y-114267148D01*
X136525000Y-113941785D01*
X136742401Y-114267148D01*
X137225337Y-114589836D01*
X137795000Y-114703149D01*
X138364663Y-114589836D01*
X138847599Y-114267148D01*
X139065000Y-113941785D01*
X139282401Y-114267148D01*
X139765337Y-114589836D01*
X140335000Y-114703149D01*
X140904663Y-114589836D01*
X141387599Y-114267148D01*
X141605000Y-113941785D01*
X141822401Y-114267148D01*
X142305337Y-114589836D01*
X142875000Y-114703149D01*
X143444663Y-114589836D01*
X143927599Y-114267148D01*
X144145000Y-113941785D01*
X144362401Y-114267148D01*
X144845337Y-114589836D01*
X145415000Y-114703149D01*
X145984663Y-114589836D01*
X146372579Y-114330638D01*
X147009615Y-114330638D01*
X147347637Y-115148715D01*
X147972993Y-115775163D01*
X148790479Y-116114613D01*
X149675638Y-116115385D01*
X150493715Y-115777363D01*
X151120163Y-115152007D01*
X151459613Y-114334521D01*
X151460385Y-113449362D01*
X151122363Y-112631285D01*
X150497007Y-112004837D01*
X149679521Y-111665387D01*
X148794362Y-111664615D01*
X147976285Y-112002637D01*
X147349837Y-112627993D01*
X147010387Y-113445479D01*
X147009615Y-114330638D01*
X146372579Y-114330638D01*
X146467599Y-114267148D01*
X146790287Y-113784212D01*
X146903600Y-113214549D01*
X146903600Y-112845451D01*
X146790287Y-112275788D01*
X146467599Y-111792852D01*
X145984663Y-111470164D01*
X145415000Y-111356851D01*
X144845337Y-111470164D01*
X144362401Y-111792852D01*
X144145000Y-112118215D01*
X143927599Y-111792852D01*
X143444663Y-111470164D01*
X142875000Y-111356851D01*
X142305337Y-111470164D01*
X141822401Y-111792852D01*
X141605000Y-112118215D01*
X141387599Y-111792852D01*
X140904663Y-111470164D01*
X140335000Y-111356851D01*
X139765337Y-111470164D01*
X139282401Y-111792852D01*
X139065000Y-112118215D01*
X138847599Y-111792852D01*
X138364663Y-111470164D01*
X137795000Y-111356851D01*
X137225337Y-111470164D01*
X136742401Y-111792852D01*
X136525000Y-112118215D01*
X136307599Y-111792852D01*
X135824663Y-111470164D01*
X135255000Y-111356851D01*
X134685337Y-111470164D01*
X134202401Y-111792852D01*
X133985000Y-112118215D01*
X133767599Y-111792852D01*
X133284663Y-111470164D01*
X132715000Y-111356851D01*
X132145337Y-111470164D01*
X131662401Y-111792852D01*
X131445000Y-112118215D01*
X131227599Y-111792852D01*
X130744663Y-111470164D01*
X130175000Y-111356851D01*
X129605337Y-111470164D01*
X129122401Y-111792852D01*
X128905000Y-112118215D01*
X128687599Y-111792852D01*
X128204663Y-111470164D01*
X127635000Y-111356851D01*
X127065337Y-111470164D01*
X126582401Y-111792852D01*
X126365000Y-112118215D01*
X126147599Y-111792852D01*
X125664663Y-111470164D01*
X125095000Y-111356851D01*
X124525337Y-111470164D01*
X124042401Y-111792852D01*
X123825000Y-112118215D01*
X123607599Y-111792852D01*
X123124663Y-111470164D01*
X122555000Y-111356851D01*
X121985337Y-111470164D01*
X121502401Y-111792852D01*
X121285000Y-112118215D01*
X121067599Y-111792852D01*
X120584663Y-111470164D01*
X120015000Y-111356851D01*
X119445337Y-111470164D01*
X118962401Y-111792852D01*
X118745000Y-112118215D01*
X118527599Y-111792852D01*
X118044663Y-111470164D01*
X117475000Y-111356851D01*
X116905337Y-111470164D01*
X116422401Y-111792852D01*
X116205000Y-112118215D01*
X116160000Y-112050868D01*
X116160000Y-110997412D01*
X118617412Y-108540000D01*
X128816894Y-108540000D01*
X128884530Y-108641224D01*
X129476603Y-109036834D01*
X130175000Y-109175754D01*
X130873397Y-109036834D01*
X131465470Y-108641224D01*
X131861080Y-108049151D01*
X132000000Y-107350754D01*
X132000000Y-107279246D01*
X131861080Y-106580849D01*
X131465470Y-105988776D01*
X130873397Y-105593166D01*
X130175000Y-105454246D01*
X129476603Y-105593166D01*
X128884530Y-105988776D01*
X128816894Y-106090000D01*
X118110000Y-106090000D01*
X117641213Y-106183248D01*
X117243794Y-106448794D01*
X114068794Y-109623794D01*
X113803248Y-110021213D01*
X113710000Y-110490000D01*
X113710000Y-112050868D01*
X113665000Y-112118215D01*
X113620000Y-112050868D01*
X113620000Y-108531803D01*
X113665000Y-108540754D01*
X114363397Y-108401834D01*
X114955470Y-108006224D01*
X115351080Y-107414151D01*
X115490000Y-106715754D01*
X115490000Y-106644246D01*
X115351080Y-105945849D01*
X114955470Y-105353776D01*
X114363397Y-104958166D01*
X113665000Y-104819246D01*
X112966603Y-104958166D01*
X112374530Y-105353776D01*
X111978920Y-105945849D01*
X111840000Y-106644246D01*
X111840000Y-106715754D01*
X111849429Y-106763159D01*
X111528794Y-107083794D01*
X111263248Y-107481213D01*
X111170000Y-107950000D01*
X111170000Y-112050868D01*
X111125000Y-112118215D01*
X110907599Y-111792852D01*
X110424663Y-111470164D01*
X109855000Y-111356851D01*
X109285337Y-111470164D01*
X108802401Y-111792852D01*
X108479713Y-112275788D01*
X108366400Y-112845451D01*
X108366400Y-113214549D01*
X108479713Y-113784212D01*
X108802401Y-114267148D01*
X109285337Y-114589836D01*
X109855000Y-114703149D01*
X110424663Y-114589836D01*
X110907599Y-114267148D01*
X111125000Y-113941785D01*
X111342401Y-114267148D01*
X111825337Y-114589836D01*
X112395000Y-114703149D01*
X112964663Y-114589836D01*
X113447599Y-114267148D01*
X113665000Y-113941785D01*
X113882401Y-114267148D01*
X114365337Y-114589836D01*
X114935000Y-114703149D01*
X115504663Y-114589836D01*
X115987599Y-114267148D01*
X116205000Y-113941785D01*
X116422401Y-114267148D01*
X116905337Y-114589836D01*
X117475000Y-114703149D01*
X118044663Y-114589836D01*
X118527599Y-114267148D01*
X118745000Y-113941785D01*
X118962401Y-114267148D01*
X119445337Y-114589836D01*
X120015000Y-114703149D01*
X120584663Y-114589836D01*
X121067599Y-114267148D01*
X121285000Y-113941785D01*
X121502401Y-114267148D01*
X121985337Y-114589836D01*
X122555000Y-114703149D01*
X123124663Y-114589836D01*
X123607599Y-114267148D01*
X123825000Y-113941785D01*
X123870000Y-114009132D01*
X123870000Y-118237588D01*
X123317588Y-118790000D01*
X102190000Y-118790000D01*
X102190000Y-114330638D01*
X103379615Y-114330638D01*
X103717637Y-115148715D01*
X104342993Y-115775163D01*
X105160479Y-116114613D01*
X106045638Y-116115385D01*
X106863715Y-115777363D01*
X107490163Y-115152007D01*
X107829613Y-114334521D01*
X107830385Y-113449362D01*
X107492363Y-112631285D01*
X106867007Y-112004837D01*
X106049521Y-111665387D01*
X105164362Y-111664615D01*
X104346285Y-112002637D01*
X103719837Y-112627993D01*
X103380387Y-113445479D01*
X103379615Y-114330638D01*
X102190000Y-114330638D01*
X102190000Y-100202412D01*
X102552500Y-99839912D01*
X103273794Y-100561206D01*
X103671213Y-100826752D01*
X104140000Y-100920000D01*
X118110000Y-100920000D01*
X118578787Y-100826752D01*
X118976206Y-100561206D01*
X120246206Y-99291206D01*
X120511752Y-98893787D01*
X120605000Y-98425000D01*
X120605000Y-97186660D01*
X120766759Y-96797102D01*
X120767240Y-96245319D01*
X120556527Y-95735354D01*
X120166698Y-95344844D01*
X119829917Y-95205000D01*
X121253340Y-95205000D01*
X121642898Y-95366759D01*
X122194681Y-95367240D01*
X122704646Y-95156527D01*
X123095156Y-94766698D01*
X123306759Y-94257102D01*
X123307240Y-93705319D01*
X123096527Y-93195354D01*
X122706698Y-92804844D01*
X122197102Y-92593241D01*
X121645319Y-92592760D01*
X121252668Y-92755000D01*
X119829515Y-92755000D01*
X120164646Y-92616527D01*
X120555156Y-92226698D01*
X120766759Y-91717102D01*
X120767240Y-91165319D01*
X120605000Y-90772668D01*
X120605000Y-88078026D01*
X120643948Y-88019736D01*
X120881206Y-87861206D01*
X121216203Y-87526208D01*
X121216206Y-87526206D01*
X121481752Y-87128787D01*
X121508364Y-86995000D01*
X121575001Y-86660000D01*
X121575000Y-86659995D01*
X121575000Y-80756475D01*
X121938620Y-80393489D01*
X122224673Y-79704597D01*
X122225324Y-78958676D01*
X121940474Y-78269286D01*
X121413489Y-77741380D01*
X120724597Y-77455327D01*
X119978676Y-77454676D01*
X119289286Y-77739526D01*
X118761380Y-78266511D01*
X118475327Y-78955403D01*
X118474676Y-79701324D01*
X118759526Y-80390714D01*
X119125000Y-80756827D01*
X119125000Y-85414390D01*
X118726303Y-85493696D01*
X118199115Y-85845951D01*
X117846860Y-86373139D01*
X117723164Y-86995000D01*
X117846860Y-87616861D01*
X118155000Y-88078026D01*
X118155000Y-90773340D01*
X117993241Y-91162898D01*
X117992760Y-91714681D01*
X118203473Y-92224646D01*
X118593302Y-92615156D01*
X118930083Y-92755000D01*
X115020827Y-92755000D01*
X114700129Y-92433742D01*
X114029608Y-92155317D01*
X113303578Y-92154684D01*
X112632571Y-92431938D01*
X112118742Y-92944871D01*
X111840317Y-93615392D01*
X111839684Y-94341422D01*
X112116938Y-95012429D01*
X112629871Y-95526258D01*
X113300392Y-95804683D01*
X114026422Y-95805316D01*
X114697429Y-95528062D01*
X115021055Y-95205000D01*
X118930485Y-95205000D01*
X118595354Y-95343473D01*
X118204844Y-95733302D01*
X117993241Y-96242898D01*
X117992760Y-96794681D01*
X118155000Y-97187332D01*
X118155000Y-97917588D01*
X117602588Y-98470000D01*
X104647412Y-98470000D01*
X104095000Y-97917588D01*
X104095000Y-55752412D01*
X110362412Y-49485000D01*
X139192588Y-49485000D01*
X144190000Y-54482411D01*
X144190000Y-94742588D01*
X141097588Y-97835000D01*
X140207412Y-97835000D01*
X139132605Y-96760193D01*
X138971527Y-96370354D01*
X138581698Y-95979844D01*
X138244917Y-95840000D01*
X139668340Y-95840000D01*
X140057898Y-96001759D01*
X140609681Y-96002240D01*
X141119646Y-95791527D01*
X141510156Y-95401698D01*
X141721759Y-94892102D01*
X141722240Y-94340319D01*
X141511527Y-93830354D01*
X141121698Y-93439844D01*
X140612102Y-93228241D01*
X140060319Y-93227760D01*
X139667668Y-93390000D01*
X138244515Y-93390000D01*
X138579646Y-93251527D01*
X138970156Y-92861698D01*
X139181759Y-92352102D01*
X139182240Y-91800319D01*
X139020000Y-91407668D01*
X139020000Y-88078026D01*
X139328140Y-87616861D01*
X139433070Y-87089342D01*
X139931206Y-86591206D01*
X140196752Y-86193787D01*
X140290000Y-85725000D01*
X140290000Y-80456998D01*
X140353620Y-80393489D01*
X140639673Y-79704597D01*
X140640324Y-78958676D01*
X140355474Y-78269286D01*
X139828489Y-77741380D01*
X139139597Y-77455327D01*
X138393676Y-77454676D01*
X137704286Y-77739526D01*
X137176380Y-78266511D01*
X136890327Y-78955403D01*
X136889676Y-79701324D01*
X137174526Y-80390714D01*
X137701511Y-80918620D01*
X137840000Y-80976126D01*
X137840000Y-85217588D01*
X137668822Y-85388766D01*
X137141303Y-85493696D01*
X136614115Y-85845951D01*
X136261860Y-86373139D01*
X136138164Y-86995000D01*
X136261860Y-87616861D01*
X136570000Y-88078026D01*
X136570000Y-91408340D01*
X136408241Y-91797898D01*
X136407760Y-92349681D01*
X136618473Y-92859646D01*
X137008302Y-93250156D01*
X137345083Y-93390000D01*
X131530827Y-93390000D01*
X131210129Y-93068742D01*
X130539608Y-92790317D01*
X129813578Y-92789684D01*
X129142571Y-93066938D01*
X128628742Y-93579871D01*
X128350317Y-94250392D01*
X128349684Y-94976422D01*
X128626938Y-95647429D01*
X129139871Y-96161258D01*
X129810392Y-96439683D01*
X130536422Y-96440316D01*
X131207429Y-96163062D01*
X131531055Y-95840000D01*
X137345485Y-95840000D01*
X137010354Y-95978473D01*
X136619844Y-96368302D01*
X136408241Y-96877898D01*
X136407760Y-97429681D01*
X136618473Y-97939646D01*
X137008302Y-98330156D01*
X137400669Y-98493081D01*
X138833794Y-99926206D01*
X139231213Y-100191752D01*
X139700000Y-100285000D01*
X141605000Y-100285000D01*
X142073787Y-100191752D01*
X142471206Y-99926206D01*
X146281206Y-96116206D01*
X146546752Y-95718787D01*
X146640001Y-95250000D01*
X146640000Y-95249995D01*
X146640000Y-53975005D01*
X146640001Y-53975000D01*
X146546752Y-53506213D01*
X146281206Y-53108794D01*
X146281203Y-53108792D01*
X140566206Y-47393794D01*
X140168787Y-47128248D01*
X139700000Y-47035000D01*
X109855000Y-47035000D01*
X109386213Y-47128248D01*
X108988794Y-47393794D01*
X102003794Y-54378794D01*
X101738248Y-54776213D01*
X101645000Y-55245000D01*
X101645000Y-97282588D01*
X100098794Y-98828794D01*
X99833248Y-99226213D01*
X99740000Y-99695000D01*
X99740000Y-123870000D01*
X97239750Y-123870000D01*
X97172402Y-123825000D01*
X97336487Y-123715362D01*
X97692211Y-123182984D01*
X97817125Y-122555000D01*
X97692211Y-121927016D01*
X97336487Y-121394638D01*
X97110000Y-121243304D01*
X97110000Y-118260870D01*
X97552429Y-118078062D01*
X98066258Y-117565129D01*
X98344683Y-116894608D01*
X98345316Y-116168578D01*
X98068062Y-115497571D01*
X97555129Y-114983742D01*
X97274571Y-114867244D01*
X97720000Y-114867244D01*
X97951611Y-114823663D01*
X98164332Y-114686781D01*
X98307038Y-114477924D01*
X98357244Y-114230000D01*
X98357244Y-111830000D01*
X98313663Y-111598389D01*
X98176781Y-111385668D01*
X97967924Y-111242962D01*
X97720000Y-111192756D01*
X95320000Y-111192756D01*
X95088389Y-111236337D01*
X94875668Y-111373219D01*
X94732962Y-111582076D01*
X94687819Y-111805000D01*
X94615000Y-111805000D01*
X94146213Y-111898248D01*
X93748794Y-112163794D01*
X92478794Y-113433794D01*
X92213248Y-113831213D01*
X92120000Y-114300000D01*
X90195000Y-114300000D01*
X90195000Y-45110000D01*
X156185000Y-45110000D01*
X156185000Y-141580000D01*
X156185000Y-141580000D01*
G37*
X156185000Y-141580000D02*
X154940235Y-141580000D01*
X90195000Y-140310486D01*
X90195000Y-135580638D01*
X103379615Y-135580638D01*
X103717637Y-136398715D01*
X104342993Y-137025163D01*
X105160479Y-137364613D01*
X106045638Y-137365385D01*
X106863715Y-137027363D01*
X107490163Y-136402007D01*
X107829613Y-135584521D01*
X107830385Y-134699362D01*
X107492363Y-133881285D01*
X106867007Y-133254837D01*
X106049521Y-132915387D01*
X105164362Y-132914615D01*
X104346285Y-133252637D01*
X103719837Y-133877993D01*
X103380387Y-134695479D01*
X103379615Y-135580638D01*
X90195000Y-135580638D01*
X90195000Y-114300000D01*
X92120000Y-114300000D01*
X92120000Y-124460000D01*
X92213248Y-124928787D01*
X92478794Y-125326206D01*
X93113794Y-125961206D01*
X93511213Y-126226752D01*
X93980000Y-126320001D01*
X93980005Y-126320000D01*
X94530250Y-126320000D01*
X94597598Y-126365000D01*
X94433513Y-126474638D01*
X94077789Y-127007016D01*
X93952875Y-127635000D01*
X94077789Y-128262984D01*
X94433513Y-128795362D01*
X94965891Y-129151086D01*
X95050505Y-129167917D01*
X97558792Y-131676203D01*
X97558794Y-131676206D01*
X97956213Y-131941752D01*
X98425000Y-132035000D01*
X144190000Y-132035000D01*
X144190000Y-134910868D01*
X144145000Y-134978215D01*
X143927599Y-134652852D01*
X143444663Y-134330164D01*
X142875000Y-134216851D01*
X142305337Y-134330164D01*
X141822401Y-134652852D01*
X141605000Y-134978215D01*
X141387599Y-134652852D01*
X140904663Y-134330164D01*
X140335000Y-134216851D01*
X139765337Y-134330164D01*
X139282401Y-134652852D01*
X139065000Y-134978215D01*
X138847599Y-134652852D01*
X138364663Y-134330164D01*
X137795000Y-134216851D01*
X137225337Y-134330164D01*
X136742401Y-134652852D01*
X136525000Y-134978215D01*
X136307599Y-134652852D01*
X135824663Y-134330164D01*
X135255000Y-134216851D01*
X134685337Y-134330164D01*
X134202401Y-134652852D01*
X133985000Y-134978215D01*
X133767599Y-134652852D01*
X133284663Y-134330164D01*
X132715000Y-134216851D01*
X132145337Y-134330164D01*
X131662401Y-134652852D01*
X131445000Y-134978215D01*
X131227599Y-134652852D01*
X130744663Y-134330164D01*
X130175000Y-134216851D01*
X129605337Y-134330164D01*
X129122401Y-134652852D01*
X128905000Y-134978215D01*
X128687599Y-134652852D01*
X128204663Y-134330164D01*
X127635000Y-134216851D01*
X127065337Y-134330164D01*
X126582401Y-134652852D01*
X126365000Y-134978215D01*
X126147599Y-134652852D01*
X125664663Y-134330164D01*
X125095000Y-134216851D01*
X124525337Y-134330164D01*
X124042401Y-134652852D01*
X123825000Y-134978215D01*
X123607599Y-134652852D01*
X123124663Y-134330164D01*
X122555000Y-134216851D01*
X121985337Y-134330164D01*
X121502401Y-134652852D01*
X121285000Y-134978215D01*
X121067599Y-134652852D01*
X120584663Y-134330164D01*
X120015000Y-134216851D01*
X119445337Y-134330164D01*
X118962401Y-134652852D01*
X118745000Y-134978215D01*
X118527599Y-134652852D01*
X118044663Y-134330164D01*
X117475000Y-134216851D01*
X116905337Y-134330164D01*
X116422401Y-134652852D01*
X116205000Y-134978215D01*
X115987599Y-134652852D01*
X115504663Y-134330164D01*
X114935000Y-134216851D01*
X114365337Y-134330164D01*
X113882401Y-134652852D01*
X113665000Y-134978215D01*
X113447599Y-134652852D01*
X112964663Y-134330164D01*
X112395000Y-134216851D01*
X111825337Y-134330164D01*
X111342401Y-134652852D01*
X111125000Y-134978215D01*
X110907599Y-134652852D01*
X110424663Y-134330164D01*
X109855000Y-134216851D01*
X109285337Y-134330164D01*
X108802401Y-134652852D01*
X108479713Y-135135788D01*
X108366400Y-135705451D01*
X108366400Y-136074549D01*
X108479713Y-136644212D01*
X108802401Y-137127148D01*
X109285337Y-137449836D01*
X109855000Y-137563149D01*
X110424663Y-137449836D01*
X110907599Y-137127148D01*
X111125000Y-136801785D01*
X111342401Y-137127148D01*
X111825337Y-137449836D01*
X112395000Y-137563149D01*
X112964663Y-137449836D01*
X113447599Y-137127148D01*
X113665000Y-136801785D01*
X113882401Y-137127148D01*
X114365337Y-137449836D01*
X114935000Y-137563149D01*
X115504663Y-137449836D01*
X115987599Y-137127148D01*
X116205000Y-136801785D01*
X116422401Y-137127148D01*
X116905337Y-137449836D01*
X117475000Y-137563149D01*
X118044663Y-137449836D01*
X118527599Y-137127148D01*
X118745000Y-136801785D01*
X118962401Y-137127148D01*
X119445337Y-137449836D01*
X120015000Y-137563149D01*
X120584663Y-137449836D01*
X121067599Y-137127148D01*
X121285000Y-136801785D01*
X121502401Y-137127148D01*
X121985337Y-137449836D01*
X122555000Y-137563149D01*
X123124663Y-137449836D01*
X123607599Y-137127148D01*
X123825000Y-136801785D01*
X124042401Y-137127148D01*
X124525337Y-137449836D01*
X125095000Y-137563149D01*
X125664663Y-137449836D01*
X126147599Y-137127148D01*
X126365000Y-136801785D01*
X126582401Y-137127148D01*
X127065337Y-137449836D01*
X127635000Y-137563149D01*
X128204663Y-137449836D01*
X128687599Y-137127148D01*
X128905000Y-136801785D01*
X129122401Y-137127148D01*
X129605337Y-137449836D01*
X130175000Y-137563149D01*
X130744663Y-137449836D01*
X131227599Y-137127148D01*
X131445000Y-136801785D01*
X131662401Y-137127148D01*
X132145337Y-137449836D01*
X132715000Y-137563149D01*
X133284663Y-137449836D01*
X133767599Y-137127148D01*
X133985000Y-136801785D01*
X134202401Y-137127148D01*
X134685337Y-137449836D01*
X135255000Y-137563149D01*
X135824663Y-137449836D01*
X136307599Y-137127148D01*
X136525000Y-136801785D01*
X136742401Y-137127148D01*
X137225337Y-137449836D01*
X137795000Y-137563149D01*
X138364663Y-137449836D01*
X138847599Y-137127148D01*
X139065000Y-136801785D01*
X139282401Y-137127148D01*
X139765337Y-137449836D01*
X140335000Y-137563149D01*
X140904663Y-137449836D01*
X141387599Y-137127148D01*
X141605000Y-136801785D01*
X141822401Y-137127148D01*
X142305337Y-137449836D01*
X142875000Y-137563149D01*
X143444663Y-137449836D01*
X143927599Y-137127148D01*
X144145000Y-136801785D01*
X144362401Y-137127148D01*
X144845337Y-137449836D01*
X145415000Y-137563149D01*
X145984663Y-137449836D01*
X146467599Y-137127148D01*
X146790287Y-136644212D01*
X146903600Y-136074549D01*
X146903600Y-135705451D01*
X146868828Y-135530638D01*
X147009615Y-135530638D01*
X147347637Y-136348715D01*
X147972993Y-136975163D01*
X148790479Y-137314613D01*
X149675638Y-137315385D01*
X150493715Y-136977363D01*
X151120163Y-136352007D01*
X151459613Y-135534521D01*
X151460385Y-134649362D01*
X151122363Y-133831285D01*
X150497007Y-133204837D01*
X149679521Y-132865387D01*
X148794362Y-132864615D01*
X147976285Y-133202637D01*
X147349837Y-133827993D01*
X147010387Y-134645479D01*
X147009615Y-135530638D01*
X146868828Y-135530638D01*
X146790287Y-135135788D01*
X146640000Y-134910868D01*
X146640000Y-126237412D01*
X154177412Y-118700000D01*
X154305000Y-118700000D01*
X154773787Y-118606752D01*
X155171206Y-118341206D01*
X155436752Y-117943787D01*
X155530000Y-117475000D01*
X155530000Y-116840005D01*
X155530001Y-116840000D01*
X155530000Y-116839995D01*
X155530000Y-109220000D01*
X155436752Y-108751213D01*
X155171206Y-108353794D01*
X150726206Y-103908794D01*
X150328787Y-103643248D01*
X149860000Y-103550000D01*
X138937412Y-103550000D01*
X135486206Y-100098794D01*
X135088787Y-99833248D01*
X134620000Y-99740000D01*
X126955000Y-99740000D01*
X126955000Y-90677412D01*
X128501206Y-89131206D01*
X128766752Y-88733787D01*
X128792859Y-88602541D01*
X128866611Y-88588663D01*
X129079332Y-88451781D01*
X129222038Y-88242924D01*
X129272244Y-87995000D01*
X129272244Y-85995000D01*
X129228663Y-85763389D01*
X129091781Y-85550668D01*
X128882924Y-85407962D01*
X128635000Y-85357756D01*
X127990000Y-85357756D01*
X127990000Y-84265935D01*
X128131752Y-84053787D01*
X128225000Y-83585000D01*
X128225000Y-83185000D01*
X128131752Y-82716213D01*
X127990000Y-82504065D01*
X127990000Y-80756475D01*
X128353620Y-80393489D01*
X128639673Y-79704597D01*
X128640324Y-78958676D01*
X128355474Y-78269286D01*
X127990000Y-77903173D01*
X127990000Y-75330000D01*
X127896752Y-74861213D01*
X127631206Y-74463794D01*
X125326206Y-72158794D01*
X124928787Y-71893248D01*
X124460000Y-71800000D01*
X120015000Y-71800000D01*
X119546213Y-71893248D01*
X119148794Y-72158794D01*
X116332588Y-74975000D01*
X112395000Y-74975000D01*
X111926213Y-75068248D01*
X111528794Y-75333794D01*
X111528792Y-75333797D01*
X109206965Y-77655624D01*
X108724597Y-77455327D01*
X107978676Y-77454676D01*
X107289286Y-77739526D01*
X106761380Y-78266511D01*
X106635000Y-78570868D01*
X106635000Y-76072412D01*
X109092412Y-73615000D01*
X114300000Y-73615000D01*
X114768787Y-73521752D01*
X115166206Y-73256206D01*
X115801206Y-72621206D01*
X116066752Y-72223787D01*
X116160001Y-71755000D01*
X116160000Y-71754995D01*
X116160000Y-63372412D01*
X119301203Y-60231208D01*
X119301206Y-60231206D01*
X119566752Y-59833787D01*
X119660000Y-59365000D01*
X119660000Y-55330827D01*
X119981258Y-55010129D01*
X120185158Y-54519084D01*
X120386938Y-55007429D01*
X120710000Y-55331055D01*
X120710000Y-62977589D01*
X119483794Y-64203794D01*
X119218248Y-64601213D01*
X119125000Y-65070000D01*
X119125000Y-65350279D01*
X118549563Y-65924713D01*
X118225370Y-66705457D01*
X118224632Y-67550834D01*
X118547462Y-68332143D01*
X119144713Y-68930437D01*
X119925457Y-69254630D01*
X120770834Y-69255368D01*
X121552143Y-68932538D01*
X122150437Y-68335287D01*
X122474630Y-67554543D01*
X122475368Y-66709166D01*
X122152538Y-65927857D01*
X121688951Y-65463461D01*
X122801203Y-64351208D01*
X122801206Y-64351206D01*
X123066752Y-63953787D01*
X123160000Y-63485000D01*
X123160000Y-55330827D01*
X123481258Y-55010129D01*
X123685158Y-54519084D01*
X123886938Y-55007429D01*
X124210000Y-55331055D01*
X124210000Y-63205000D01*
X124303248Y-63673787D01*
X124568794Y-64071206D01*
X125490000Y-64992412D01*
X125490000Y-65300279D01*
X124914563Y-65874713D01*
X124590370Y-66655457D01*
X124589632Y-67500834D01*
X124912462Y-68282143D01*
X125509713Y-68880437D01*
X126290457Y-69204630D01*
X127135834Y-69205368D01*
X127917143Y-68882538D01*
X128515437Y-68285287D01*
X128839630Y-67504543D01*
X128840368Y-66659166D01*
X128517538Y-65877857D01*
X127940000Y-65299310D01*
X127940000Y-64485000D01*
X127846752Y-64016213D01*
X127581206Y-63618794D01*
X126660000Y-62697588D01*
X126660000Y-55330827D01*
X126981258Y-55010129D01*
X127185158Y-54519084D01*
X127386938Y-55007429D01*
X127710000Y-55331055D01*
X127710000Y-60355000D01*
X127803248Y-60823787D01*
X128068794Y-61221206D01*
X131490000Y-64642412D01*
X131490000Y-79500279D01*
X130914563Y-80074713D01*
X130590370Y-80855457D01*
X130589632Y-81700834D01*
X130912462Y-82482143D01*
X131509713Y-83080437D01*
X132290457Y-83404630D01*
X133135834Y-83405368D01*
X133917143Y-83082538D01*
X134515437Y-82485287D01*
X134839630Y-81704543D01*
X134840368Y-80859166D01*
X134517538Y-80077857D01*
X133940000Y-79499310D01*
X133940000Y-64135000D01*
X133846752Y-63666213D01*
X133581206Y-63268794D01*
X130160000Y-59847588D01*
X130160000Y-55330827D01*
X130481258Y-55010129D01*
X130685158Y-54519084D01*
X130886938Y-55007429D01*
X131399871Y-55521258D01*
X132070392Y-55799683D01*
X132527670Y-55800082D01*
X137540000Y-60812412D01*
X137540000Y-65350279D01*
X136964563Y-65924713D01*
X136640370Y-66705457D01*
X136639632Y-67550834D01*
X136962462Y-68332143D01*
X137559713Y-68930437D01*
X138340457Y-69254630D01*
X139185834Y-69255368D01*
X139967143Y-68932538D01*
X140565437Y-68335287D01*
X140889630Y-67554543D01*
X140890368Y-66709166D01*
X140567538Y-65927857D01*
X139990000Y-65349310D01*
X139990000Y-60305000D01*
X139896752Y-59836213D01*
X139631206Y-59438794D01*
X134259920Y-54067508D01*
X134260316Y-53613578D01*
X133983062Y-52942571D01*
X133470129Y-52428742D01*
X132799608Y-52150317D01*
X132073578Y-52149684D01*
X131402571Y-52426938D01*
X130888742Y-52939871D01*
X130684842Y-53430916D01*
X130483062Y-52942571D01*
X129970129Y-52428742D01*
X129299608Y-52150317D01*
X128573578Y-52149684D01*
X127902571Y-52426938D01*
X127388742Y-52939871D01*
X127184842Y-53430916D01*
X126983062Y-52942571D01*
X126470129Y-52428742D01*
X125799608Y-52150317D01*
X125073578Y-52149684D01*
X124402571Y-52426938D01*
X123888742Y-52939871D01*
X123684842Y-53430916D01*
X123483062Y-52942571D01*
X122970129Y-52428742D01*
X122299608Y-52150317D01*
X121573578Y-52149684D01*
X120902571Y-52426938D01*
X120388742Y-52939871D01*
X120184842Y-53430916D01*
X119983062Y-52942571D01*
X119470129Y-52428742D01*
X118799608Y-52150317D01*
X118073578Y-52149684D01*
X117402571Y-52426938D01*
X116888742Y-52939871D01*
X116772244Y-53220429D01*
X116772244Y-52775000D01*
X116728663Y-52543389D01*
X116591781Y-52330668D01*
X116382924Y-52187962D01*
X116135000Y-52137756D01*
X113735000Y-52137756D01*
X113503389Y-52181337D01*
X113290668Y-52318219D01*
X113147962Y-52527076D01*
X113097756Y-52775000D01*
X113097756Y-54079832D01*
X107433794Y-59743794D01*
X107168248Y-60141213D01*
X107075000Y-60610000D01*
X107075000Y-65300279D01*
X106499563Y-65874713D01*
X106175370Y-66655457D01*
X106174632Y-67500834D01*
X106497462Y-68282143D01*
X107094713Y-68880437D01*
X107875457Y-69204630D01*
X108720834Y-69205368D01*
X109502143Y-68882538D01*
X110100437Y-68285287D01*
X110424630Y-67504543D01*
X110425368Y-66659166D01*
X110102538Y-65877857D01*
X109525000Y-65299310D01*
X109525000Y-61117412D01*
X114830168Y-55812244D01*
X116135000Y-55812244D01*
X116366611Y-55768663D01*
X116579332Y-55631781D01*
X116722038Y-55422924D01*
X116772244Y-55175000D01*
X116772244Y-54729848D01*
X116886938Y-55007429D01*
X117210000Y-55331055D01*
X117210000Y-58857589D01*
X114068794Y-61998794D01*
X113803248Y-62396213D01*
X113710000Y-62865000D01*
X113710000Y-71165000D01*
X108585000Y-71165000D01*
X108116213Y-71258248D01*
X107718794Y-71523794D01*
X104543794Y-74698794D01*
X104278248Y-75096213D01*
X104185000Y-75565000D01*
X104185000Y-89535000D01*
X104278248Y-90003787D01*
X104543794Y-90401206D01*
X106448794Y-92306206D01*
X106846213Y-92571752D01*
X107315000Y-92665000D01*
X109855000Y-92665000D01*
X110323787Y-92571752D01*
X110721206Y-92306206D01*
X115166206Y-87861206D01*
X115431752Y-87463787D01*
X115525000Y-86995000D01*
X115525000Y-83059721D01*
X116100437Y-82485287D01*
X116424630Y-81704543D01*
X116425368Y-80859166D01*
X116102538Y-80077857D01*
X115505287Y-79479563D01*
X114724543Y-79155370D01*
X113879166Y-79154632D01*
X113097857Y-79477462D01*
X112499563Y-80074713D01*
X112175370Y-80855457D01*
X112174632Y-81700834D01*
X112497462Y-82482143D01*
X113075000Y-83060690D01*
X113075000Y-86487588D01*
X109347588Y-90215000D01*
X107822412Y-90215000D01*
X106635000Y-89027588D01*
X106635000Y-80089338D01*
X106759526Y-80390714D01*
X107125000Y-80756827D01*
X107125000Y-86760000D01*
X107218248Y-87228787D01*
X107483794Y-87626206D01*
X107582756Y-87725168D01*
X107582756Y-87995000D01*
X107626337Y-88226611D01*
X107763219Y-88439332D01*
X107972076Y-88582038D01*
X108220000Y-88632244D01*
X110220000Y-88632244D01*
X110451611Y-88588663D01*
X110664332Y-88451781D01*
X110807038Y-88242924D01*
X110857244Y-87995000D01*
X110857244Y-85995000D01*
X110813663Y-85763389D01*
X110676781Y-85550668D01*
X110467924Y-85407962D01*
X110220000Y-85357756D01*
X109575000Y-85357756D01*
X109575000Y-80756475D01*
X109938620Y-80393489D01*
X109978044Y-80298545D01*
X110131206Y-80196206D01*
X112902411Y-77425000D01*
X116840000Y-77425000D01*
X117308787Y-77331752D01*
X117706206Y-77066206D01*
X120522412Y-74250000D01*
X123952588Y-74250000D01*
X125540000Y-75837412D01*
X125540000Y-77903525D01*
X125176380Y-78266511D01*
X124890327Y-78955403D01*
X124889676Y-79701324D01*
X125174526Y-80390714D01*
X125540000Y-80756827D01*
X125540000Y-82632794D01*
X125261213Y-82688248D01*
X124863794Y-82953794D01*
X124598248Y-83351213D01*
X124505000Y-83820000D01*
X124505000Y-100965000D01*
X124598248Y-101433787D01*
X124863794Y-101831206D01*
X125261213Y-102096752D01*
X125730000Y-102190000D01*
X134112588Y-102190000D01*
X137563794Y-105641206D01*
X137961213Y-105906752D01*
X138430000Y-106000001D01*
X138430005Y-106000000D01*
X149352588Y-106000000D01*
X153080000Y-109727412D01*
X153080000Y-116332588D01*
X144548794Y-124863794D01*
X144283248Y-125261213D01*
X144190000Y-125730000D01*
X144190000Y-129585000D01*
X98932411Y-129585000D01*
X97659440Y-128312029D01*
X97692211Y-128262984D01*
X97817125Y-127635000D01*
X97692211Y-127007016D01*
X97336487Y-126474638D01*
X97172402Y-126365000D01*
X97239750Y-126320000D01*
X100330000Y-126320000D01*
X100798787Y-126226752D01*
X101196206Y-125961206D01*
X101831206Y-125326206D01*
X102096752Y-124928787D01*
X102190001Y-124460000D01*
X102190000Y-124459995D01*
X102190000Y-123770000D01*
X110565001Y-123770000D01*
X110565001Y-126570000D01*
X135815000Y-126570000D01*
X135815000Y-123770000D01*
X110565001Y-123770000D01*
X102190000Y-123770000D01*
X102190000Y-121240000D01*
X123825000Y-121240000D01*
X124293787Y-121146752D01*
X124691206Y-120881206D01*
X125961206Y-119611206D01*
X126226752Y-119213787D01*
X126320000Y-118745000D01*
X126320000Y-114009132D01*
X126365000Y-113941785D01*
X126582401Y-114267148D01*
X127065337Y-114589836D01*
X127635000Y-114703149D01*
X128204663Y-114589836D01*
X128687599Y-114267148D01*
X128905000Y-113941785D01*
X129122401Y-114267148D01*
X129605337Y-114589836D01*
X130175000Y-114703149D01*
X130744663Y-114589836D01*
X131227599Y-114267148D01*
X131445000Y-113941785D01*
X131662401Y-114267148D01*
X132145337Y-114589836D01*
X132715000Y-114703149D01*
X133284663Y-114589836D01*
X133767599Y-114267148D01*
X133985000Y-113941785D01*
X134202401Y-114267148D01*
X134685337Y-114589836D01*
X135255000Y-114703149D01*
X135824663Y-114589836D01*
X136307599Y-114267148D01*
X136525000Y-113941785D01*
X136742401Y-114267148D01*
X137225337Y-114589836D01*
X137795000Y-114703149D01*
X138364663Y-114589836D01*
X138847599Y-114267148D01*
X139065000Y-113941785D01*
X139282401Y-114267148D01*
X139765337Y-114589836D01*
X140335000Y-114703149D01*
X140904663Y-114589836D01*
X141387599Y-114267148D01*
X141605000Y-113941785D01*
X141822401Y-114267148D01*
X142305337Y-114589836D01*
X142875000Y-114703149D01*
X143444663Y-114589836D01*
X143927599Y-114267148D01*
X144145000Y-113941785D01*
X144362401Y-114267148D01*
X144845337Y-114589836D01*
X145415000Y-114703149D01*
X145984663Y-114589836D01*
X146372579Y-114330638D01*
X147009615Y-114330638D01*
X147347637Y-115148715D01*
X147972993Y-115775163D01*
X148790479Y-116114613D01*
X149675638Y-116115385D01*
X150493715Y-115777363D01*
X151120163Y-115152007D01*
X151459613Y-114334521D01*
X151460385Y-113449362D01*
X151122363Y-112631285D01*
X150497007Y-112004837D01*
X149679521Y-111665387D01*
X148794362Y-111664615D01*
X147976285Y-112002637D01*
X147349837Y-112627993D01*
X147010387Y-113445479D01*
X147009615Y-114330638D01*
X146372579Y-114330638D01*
X146467599Y-114267148D01*
X146790287Y-113784212D01*
X146903600Y-113214549D01*
X146903600Y-112845451D01*
X146790287Y-112275788D01*
X146467599Y-111792852D01*
X145984663Y-111470164D01*
X145415000Y-111356851D01*
X144845337Y-111470164D01*
X144362401Y-111792852D01*
X144145000Y-112118215D01*
X143927599Y-111792852D01*
X143444663Y-111470164D01*
X142875000Y-111356851D01*
X142305337Y-111470164D01*
X141822401Y-111792852D01*
X141605000Y-112118215D01*
X141387599Y-111792852D01*
X140904663Y-111470164D01*
X140335000Y-111356851D01*
X139765337Y-111470164D01*
X139282401Y-111792852D01*
X139065000Y-112118215D01*
X138847599Y-111792852D01*
X138364663Y-111470164D01*
X137795000Y-111356851D01*
X137225337Y-111470164D01*
X136742401Y-111792852D01*
X136525000Y-112118215D01*
X136307599Y-111792852D01*
X135824663Y-111470164D01*
X135255000Y-111356851D01*
X134685337Y-111470164D01*
X134202401Y-111792852D01*
X133985000Y-112118215D01*
X133767599Y-111792852D01*
X133284663Y-111470164D01*
X132715000Y-111356851D01*
X132145337Y-111470164D01*
X131662401Y-111792852D01*
X131445000Y-112118215D01*
X131227599Y-111792852D01*
X130744663Y-111470164D01*
X130175000Y-111356851D01*
X129605337Y-111470164D01*
X129122401Y-111792852D01*
X128905000Y-112118215D01*
X128687599Y-111792852D01*
X128204663Y-111470164D01*
X127635000Y-111356851D01*
X127065337Y-111470164D01*
X126582401Y-111792852D01*
X126365000Y-112118215D01*
X126147599Y-111792852D01*
X125664663Y-111470164D01*
X125095000Y-111356851D01*
X124525337Y-111470164D01*
X124042401Y-111792852D01*
X123825000Y-112118215D01*
X123607599Y-111792852D01*
X123124663Y-111470164D01*
X122555000Y-111356851D01*
X121985337Y-111470164D01*
X121502401Y-111792852D01*
X121285000Y-112118215D01*
X121067599Y-111792852D01*
X120584663Y-111470164D01*
X120015000Y-111356851D01*
X119445337Y-111470164D01*
X118962401Y-111792852D01*
X118745000Y-112118215D01*
X118527599Y-111792852D01*
X118044663Y-111470164D01*
X117475000Y-111356851D01*
X116905337Y-111470164D01*
X116422401Y-111792852D01*
X116205000Y-112118215D01*
X116160000Y-112050868D01*
X116160000Y-110997412D01*
X118617412Y-108540000D01*
X128816894Y-108540000D01*
X128884530Y-108641224D01*
X129476603Y-109036834D01*
X130175000Y-109175754D01*
X130873397Y-109036834D01*
X131465470Y-108641224D01*
X131861080Y-108049151D01*
X132000000Y-107350754D01*
X132000000Y-107279246D01*
X131861080Y-106580849D01*
X131465470Y-105988776D01*
X130873397Y-105593166D01*
X130175000Y-105454246D01*
X129476603Y-105593166D01*
X128884530Y-105988776D01*
X128816894Y-106090000D01*
X118110000Y-106090000D01*
X117641213Y-106183248D01*
X117243794Y-106448794D01*
X114068794Y-109623794D01*
X113803248Y-110021213D01*
X113710000Y-110490000D01*
X113710000Y-112050868D01*
X113665000Y-112118215D01*
X113620000Y-112050868D01*
X113620000Y-108531803D01*
X113665000Y-108540754D01*
X114363397Y-108401834D01*
X114955470Y-108006224D01*
X115351080Y-107414151D01*
X115490000Y-106715754D01*
X115490000Y-106644246D01*
X115351080Y-105945849D01*
X114955470Y-105353776D01*
X114363397Y-104958166D01*
X113665000Y-104819246D01*
X112966603Y-104958166D01*
X112374530Y-105353776D01*
X111978920Y-105945849D01*
X111840000Y-106644246D01*
X111840000Y-106715754D01*
X111849429Y-106763159D01*
X111528794Y-107083794D01*
X111263248Y-107481213D01*
X111170000Y-107950000D01*
X111170000Y-112050868D01*
X111125000Y-112118215D01*
X110907599Y-111792852D01*
X110424663Y-111470164D01*
X109855000Y-111356851D01*
X109285337Y-111470164D01*
X108802401Y-111792852D01*
X108479713Y-112275788D01*
X108366400Y-112845451D01*
X108366400Y-113214549D01*
X108479713Y-113784212D01*
X108802401Y-114267148D01*
X109285337Y-114589836D01*
X109855000Y-114703149D01*
X110424663Y-114589836D01*
X110907599Y-114267148D01*
X111125000Y-113941785D01*
X111342401Y-114267148D01*
X111825337Y-114589836D01*
X112395000Y-114703149D01*
X112964663Y-114589836D01*
X113447599Y-114267148D01*
X113665000Y-113941785D01*
X113882401Y-114267148D01*
X114365337Y-114589836D01*
X114935000Y-114703149D01*
X115504663Y-114589836D01*
X115987599Y-114267148D01*
X116205000Y-113941785D01*
X116422401Y-114267148D01*
X116905337Y-114589836D01*
X117475000Y-114703149D01*
X118044663Y-114589836D01*
X118527599Y-114267148D01*
X118745000Y-113941785D01*
X118962401Y-114267148D01*
X119445337Y-114589836D01*
X120015000Y-114703149D01*
X120584663Y-114589836D01*
X121067599Y-114267148D01*
X121285000Y-113941785D01*
X121502401Y-114267148D01*
X121985337Y-114589836D01*
X122555000Y-114703149D01*
X123124663Y-114589836D01*
X123607599Y-114267148D01*
X123825000Y-113941785D01*
X123870000Y-114009132D01*
X123870000Y-118237588D01*
X123317588Y-118790000D01*
X102190000Y-118790000D01*
X102190000Y-114330638D01*
X103379615Y-114330638D01*
X103717637Y-115148715D01*
X104342993Y-115775163D01*
X105160479Y-116114613D01*
X106045638Y-116115385D01*
X106863715Y-115777363D01*
X107490163Y-115152007D01*
X107829613Y-114334521D01*
X107830385Y-113449362D01*
X107492363Y-112631285D01*
X106867007Y-112004837D01*
X106049521Y-111665387D01*
X105164362Y-111664615D01*
X104346285Y-112002637D01*
X103719837Y-112627993D01*
X103380387Y-113445479D01*
X103379615Y-114330638D01*
X102190000Y-114330638D01*
X102190000Y-100202412D01*
X102552500Y-99839912D01*
X103273794Y-100561206D01*
X103671213Y-100826752D01*
X104140000Y-100920000D01*
X118110000Y-100920000D01*
X118578787Y-100826752D01*
X118976206Y-100561206D01*
X120246206Y-99291206D01*
X120511752Y-98893787D01*
X120605000Y-98425000D01*
X120605000Y-97186660D01*
X120766759Y-96797102D01*
X120767240Y-96245319D01*
X120556527Y-95735354D01*
X120166698Y-95344844D01*
X119829917Y-95205000D01*
X121253340Y-95205000D01*
X121642898Y-95366759D01*
X122194681Y-95367240D01*
X122704646Y-95156527D01*
X123095156Y-94766698D01*
X123306759Y-94257102D01*
X123307240Y-93705319D01*
X123096527Y-93195354D01*
X122706698Y-92804844D01*
X122197102Y-92593241D01*
X121645319Y-92592760D01*
X121252668Y-92755000D01*
X119829515Y-92755000D01*
X120164646Y-92616527D01*
X120555156Y-92226698D01*
X120766759Y-91717102D01*
X120767240Y-91165319D01*
X120605000Y-90772668D01*
X120605000Y-88078026D01*
X120643948Y-88019736D01*
X120881206Y-87861206D01*
X121216203Y-87526208D01*
X121216206Y-87526206D01*
X121481752Y-87128787D01*
X121508364Y-86995000D01*
X121575001Y-86660000D01*
X121575000Y-86659995D01*
X121575000Y-80756475D01*
X121938620Y-80393489D01*
X122224673Y-79704597D01*
X122225324Y-78958676D01*
X121940474Y-78269286D01*
X121413489Y-77741380D01*
X120724597Y-77455327D01*
X119978676Y-77454676D01*
X119289286Y-77739526D01*
X118761380Y-78266511D01*
X118475327Y-78955403D01*
X118474676Y-79701324D01*
X118759526Y-80390714D01*
X119125000Y-80756827D01*
X119125000Y-85414390D01*
X118726303Y-85493696D01*
X118199115Y-85845951D01*
X117846860Y-86373139D01*
X117723164Y-86995000D01*
X117846860Y-87616861D01*
X118155000Y-88078026D01*
X118155000Y-90773340D01*
X117993241Y-91162898D01*
X117992760Y-91714681D01*
X118203473Y-92224646D01*
X118593302Y-92615156D01*
X118930083Y-92755000D01*
X115020827Y-92755000D01*
X114700129Y-92433742D01*
X114029608Y-92155317D01*
X113303578Y-92154684D01*
X112632571Y-92431938D01*
X112118742Y-92944871D01*
X111840317Y-93615392D01*
X111839684Y-94341422D01*
X112116938Y-95012429D01*
X112629871Y-95526258D01*
X113300392Y-95804683D01*
X114026422Y-95805316D01*
X114697429Y-95528062D01*
X115021055Y-95205000D01*
X118930485Y-95205000D01*
X118595354Y-95343473D01*
X118204844Y-95733302D01*
X117993241Y-96242898D01*
X117992760Y-96794681D01*
X118155000Y-97187332D01*
X118155000Y-97917588D01*
X117602588Y-98470000D01*
X104647412Y-98470000D01*
X104095000Y-97917588D01*
X104095000Y-55752412D01*
X110362412Y-49485000D01*
X139192588Y-49485000D01*
X144190000Y-54482411D01*
X144190000Y-94742588D01*
X141097588Y-97835000D01*
X140207412Y-97835000D01*
X139132605Y-96760193D01*
X138971527Y-96370354D01*
X138581698Y-95979844D01*
X138244917Y-95840000D01*
X139668340Y-95840000D01*
X140057898Y-96001759D01*
X140609681Y-96002240D01*
X141119646Y-95791527D01*
X141510156Y-95401698D01*
X141721759Y-94892102D01*
X141722240Y-94340319D01*
X141511527Y-93830354D01*
X141121698Y-93439844D01*
X140612102Y-93228241D01*
X140060319Y-93227760D01*
X139667668Y-93390000D01*
X138244515Y-93390000D01*
X138579646Y-93251527D01*
X138970156Y-92861698D01*
X139181759Y-92352102D01*
X139182240Y-91800319D01*
X139020000Y-91407668D01*
X139020000Y-88078026D01*
X139328140Y-87616861D01*
X139433070Y-87089342D01*
X139931206Y-86591206D01*
X140196752Y-86193787D01*
X140290000Y-85725000D01*
X140290000Y-80456998D01*
X140353620Y-80393489D01*
X140639673Y-79704597D01*
X140640324Y-78958676D01*
X140355474Y-78269286D01*
X139828489Y-77741380D01*
X139139597Y-77455327D01*
X138393676Y-77454676D01*
X137704286Y-77739526D01*
X137176380Y-78266511D01*
X136890327Y-78955403D01*
X136889676Y-79701324D01*
X137174526Y-80390714D01*
X137701511Y-80918620D01*
X137840000Y-80976126D01*
X137840000Y-85217588D01*
X137668822Y-85388766D01*
X137141303Y-85493696D01*
X136614115Y-85845951D01*
X136261860Y-86373139D01*
X136138164Y-86995000D01*
X136261860Y-87616861D01*
X136570000Y-88078026D01*
X136570000Y-91408340D01*
X136408241Y-91797898D01*
X136407760Y-92349681D01*
X136618473Y-92859646D01*
X137008302Y-93250156D01*
X137345083Y-93390000D01*
X131530827Y-93390000D01*
X131210129Y-93068742D01*
X130539608Y-92790317D01*
X129813578Y-92789684D01*
X129142571Y-93066938D01*
X128628742Y-93579871D01*
X128350317Y-94250392D01*
X128349684Y-94976422D01*
X128626938Y-95647429D01*
X129139871Y-96161258D01*
X129810392Y-96439683D01*
X130536422Y-96440316D01*
X131207429Y-96163062D01*
X131531055Y-95840000D01*
X137345485Y-95840000D01*
X137010354Y-95978473D01*
X136619844Y-96368302D01*
X136408241Y-96877898D01*
X136407760Y-97429681D01*
X136618473Y-97939646D01*
X137008302Y-98330156D01*
X137400669Y-98493081D01*
X138833794Y-99926206D01*
X139231213Y-100191752D01*
X139700000Y-100285000D01*
X141605000Y-100285000D01*
X142073787Y-100191752D01*
X142471206Y-99926206D01*
X146281206Y-96116206D01*
X146546752Y-95718787D01*
X146640001Y-95250000D01*
X146640000Y-95249995D01*
X146640000Y-53975005D01*
X146640001Y-53975000D01*
X146546752Y-53506213D01*
X146281206Y-53108794D01*
X146281203Y-53108792D01*
X140566206Y-47393794D01*
X140168787Y-47128248D01*
X139700000Y-47035000D01*
X109855000Y-47035000D01*
X109386213Y-47128248D01*
X108988794Y-47393794D01*
X102003794Y-54378794D01*
X101738248Y-54776213D01*
X101645000Y-55245000D01*
X101645000Y-97282588D01*
X100098794Y-98828794D01*
X99833248Y-99226213D01*
X99740000Y-99695000D01*
X99740000Y-123870000D01*
X97239750Y-123870000D01*
X97172402Y-123825000D01*
X97336487Y-123715362D01*
X97692211Y-123182984D01*
X97817125Y-122555000D01*
X97692211Y-121927016D01*
X97336487Y-121394638D01*
X97110000Y-121243304D01*
X97110000Y-118260870D01*
X97552429Y-118078062D01*
X98066258Y-117565129D01*
X98344683Y-116894608D01*
X98345316Y-116168578D01*
X98068062Y-115497571D01*
X97555129Y-114983742D01*
X97274571Y-114867244D01*
X97720000Y-114867244D01*
X97951611Y-114823663D01*
X98164332Y-114686781D01*
X98307038Y-114477924D01*
X98357244Y-114230000D01*
X98357244Y-111830000D01*
X98313663Y-111598389D01*
X98176781Y-111385668D01*
X97967924Y-111242962D01*
X97720000Y-111192756D01*
X95320000Y-111192756D01*
X95088389Y-111236337D01*
X94875668Y-111373219D01*
X94732962Y-111582076D01*
X94687819Y-111805000D01*
X94615000Y-111805000D01*
X94146213Y-111898248D01*
X93748794Y-112163794D01*
X92478794Y-113433794D01*
X92213248Y-113831213D01*
X92120000Y-114300000D01*
X90195000Y-114300000D01*
X90195000Y-45110000D01*
X156185000Y-45110000D01*
X156185000Y-141580000D01*
G36*
X94597598Y-123825000D02*
X94570000Y-123843440D01*
X94570000Y-123806560D01*
X94597598Y-123825000D01*
X94597598Y-123825000D01*
G37*
X94597598Y-123825000D02*
X94570000Y-123843440D01*
X94570000Y-123806560D01*
X94597598Y-123825000D01*
G36*
X94863219Y-114674332D02*
X95072076Y-114817038D01*
X95320000Y-114867244D01*
X95765152Y-114867244D01*
X95487571Y-114981938D01*
X94973742Y-115494871D01*
X94695317Y-116165392D01*
X94694684Y-116891422D01*
X94708005Y-116923662D01*
X94660000Y-117165000D01*
X94660000Y-121243304D01*
X94570000Y-121303440D01*
X94570000Y-114807412D01*
X94800519Y-114576893D01*
X94863219Y-114674332D01*
X94863219Y-114674332D01*
G37*
X94863219Y-114674332D02*
X95072076Y-114817038D01*
X95320000Y-114867244D01*
X95765152Y-114867244D01*
X95487571Y-114981938D01*
X94973742Y-115494871D01*
X94695317Y-116165392D01*
X94694684Y-116891422D01*
X94708005Y-116923662D01*
X94660000Y-117165000D01*
X94660000Y-121243304D01*
X94570000Y-121303440D01*
X94570000Y-114807412D01*
X94800519Y-114576893D01*
X94863219Y-114674332D01*
M02*
